<?xml version="1.0" encoding="UTF-8" standalone="no"?>
<svg
   viewBox="0 0 199.99999 200"
   version="1.1"
   id="svg18"
   sodipodi:docname="logo.svg"
   inkscape:version="1.2.2 (b0a8486541, 2022-12-01)"
   width="200"
   height="200"
   inkscape:export-filename="logo.png"
   inkscape:export-xdpi="230.39999"
   inkscape:export-ydpi="230.39999"
   xmlns:inkscape="http://www.inkscape.org/namespaces/inkscape"
   xmlns:sodipodi="http://sodipodi.sourceforge.net/DTD/sodipodi-0.dtd"
   xmlns="http://www.w3.org/2000/svg"
   xmlns:svg="http://www.w3.org/2000/svg"
   xmlns:rdf="http://www.w3.org/1999/02/22-rdf-syntax-ns#"
   xmlns:cc="http://creativecommons.org/ns#"
   xmlns:dc="http://purl.org/dc/elements/1.1/">
  <sodipodi:namedview
     id="namedview20"
     pagecolor="#ffffff"
     bordercolor="#666666"
     borderopacity="1.0"
     inkscape:showpageshadow="2"
     inkscape:pageopacity="0"
     inkscape:pagecheckerboard="0"
     inkscape:deskcolor="#d1d1d1"
     showgrid="false"
     inkscape:zoom="1.18"
     inkscape:cx="-150.42373"
     inkscape:cy="211.86441"
     inkscape:window-width="1920"
     inkscape:window-height="1137"
     inkscape:window-x="-8"
     inkscape:window-y="379"
     inkscape:window-maximized="1"
     inkscape:current-layer="g7557" />
  <defs
     id="defs4">
    <style
       id="style2">.cls-1{fill:#8bc34a;}.cls-2{fill:#7cb342;}.cls-3{fill:#fff;stroke:#fff;stroke-miterlimit:10;stroke-width:0.08px;}.cls-4{fill:#bed9a1;}</style>
  </defs>
  <title
     id="title6">compiler</title>
  <g
     id="Layer_2"
     data-name="Layer 2">
    <g
       id="g7557"
       transform="translate(7.2)">
      <polygon
         class="cls-1"
         points="92.4,200 92.4,200 171.3,156.1 185.6,33.3 92.4,0 0,33.3 14,156.1 92.4,200 "
         id="polygon8"
         style="fill:#afe32a;fill-opacity:1" />
      <polygon
         class="cls-2"
         points="92.4,200 171.3,156.1 185.6,33.3 92.4,0 92.4,22.2 92.4,123.2 92.4,200 "
         id="polygon10"
         style="fill:#99c711;fill-opacity:1" />
      <g
         id="g619"
         transform="matrix(0.11598192,0.04804129,-0.04804129,0.11598192,58.829697,17.988878)"
         style="stroke-width:7.96569">
        <path
           d="m 452.76,11.46 c -94.99,9.81 -185.95,47.11 -260.56,106.72 -37.69,30 -81.34,79.22 -108.65,122.88 -13.46,21.34 -35,65 -44.04,89.61 -52.5,142.11 -34.04,307.87 48.07,434.01 27.31,41.92 68.46,87.69 104.61,116.53 153.45,122.11 360.17,143.07 532.27,54.03 45.57,-23.65 84.8,-52.49 121.53,-89.42 C 997.53,694.5 1033.3,464.51 935.03,274.71 895.23,197.6 833.12,130.3 758.51,83.38 737.17,69.92 693.51,48.38 668.9,39.34 643.32,29.92 603.52,19.73 573.9,15.11 545.06,10.5 480.45,8.57 452.76,11.46 Z m 81.72,40.19 c 109.42,9.62 205.57,53.84 281.91,129.8 166.72,165.76 177.49,428.44 25.19,609.58 C 744.47,906.4 589.86,965.63 439.29,944.86 341.03,931.4 251.8,886.79 181.61,816.21 110.85,745.07 67.2,655.84 53.55,553.54 c -3.08,-22.88 -3.08,-85.96 0,-107.69 14.61,-104.8 57.3,-191.72 129.03,-263.45 23.46,-23.46 54.8,-48.65 81.34,-65 79.42,-49.41 179.22,-73.64 270.56,-65.75 z"
           id="path446"
           style="font-variation-settings:normal;opacity:1;vector-effect:none;fill:#ffffff;fill-opacity:1;stroke-width:7.96572;stroke-linecap:butt;stroke-linejoin:miter;stroke-miterlimit:4;stroke-dasharray:none;stroke-dashoffset:0;stroke-opacity:1;-inkscape-stroke:none;stop-color:#000000;stop-opacity:1" />
        <path
           d="m 427.56,102.61 c -49.04,9.04 -98.84,28.46 -143.64,56.34 -36.34,22.31 -46.15,40 -34.81,61.92 1.35,2.69 49.8,52.11 107.88,109.99 95.38,95.38 105.96,105.38 111.53,105.38 4.61,0 7.11,-1.35 9.61,-5.19 3.27,-4.81 3.46,-15.19 4.04,-149.61 0.38,-101.34 -0.19,-146.72 -1.54,-152.87 -2.88,-11.54 -10.19,-20.77 -20,-25.19 -9.03,-4.04 -14.03,-4.23 -33.07,-0.77 z m 10.2,180.18 c 5.58,6.34 6.15,7.69 8.27,19.23 1.92,9.81 0,40.57 -3.08,48.46 -2.69,7.12 -16.15,0.77 -35.19,-16.92 -16.92,-15.58 -22.11,-33.27 -12.69,-42.69 11.92,-11.93 35.19,-16.35 42.69,-8.08 z"
           id="path448"
           style="font-variation-settings:normal;opacity:1;vector-effect:none;fill:#ffffff;fill-opacity:1;stroke-width:7.96572;stroke-linecap:butt;stroke-linejoin:miter;stroke-miterlimit:4;stroke-dasharray:none;stroke-dashoffset:0;stroke-opacity:1;-inkscape-stroke:none;stop-color:#000000;stop-opacity:1" />
        <path
           d="m 539.29,103.38 c -9.81,4.42 -17.5,13.46 -20.19,23.27 -1.35,5 -1.92,56.15 -1.54,154.41 0.58,141.53 0.77,147.3 4.23,151.14 2.31,2.5 5.96,4.04 9.62,4.04 5.19,0 17.88,-11.92 112.11,-106.15 78.65,-78.65 106.92,-108.07 108.65,-113.07 4.81,-14.81 1.54,-28.65 -9.42,-38.84 -19.05,-17.88 -75.59,-47.88 -114.24,-60.77 -22.69,-7.5 -67.3,-17.69 -76.92,-17.69 -2.49,0 -8.07,1.73 -12.3,3.66 z m 54.23,179.99 c 24.61,12.31 20.77,31.73 -11.73,58.07 -14.62,12.11 -22.69,15 -25,9.23 -2.5,-6.73 -5.39,-36.92 -4.23,-45.77 1.54,-10.77 3.65,-15.58 9.42,-22.11 5.58,-5.96 18.65,-5.77 31.54,0.58 z"
           id="path450"
           style="font-variation-settings:normal;opacity:1;vector-effect:none;fill:#ffffff;fill-opacity:1;stroke-width:7.96572;stroke-linecap:butt;stroke-linejoin:miter;stroke-miterlimit:4;stroke-dasharray:none;stroke-dashoffset:0;stroke-opacity:1;-inkscape-stroke:none;stop-color:#000000;stop-opacity:1" />
        <path
           d="m 193.16,246.83 c -9.81,3.46 -20.96,15.58 -34.42,37.5 -29.04,46.73 -49.61,101.34 -56.92,150.18 -2.31,15.19 -2.12,16.92 1.34,25.19 4.81,10.38 13.84,17.69 25.57,20.77 6.15,1.35 51.54,1.92 152.88,1.54 134.42,-0.58 144.8,-0.77 149.61,-4.04 3.85,-2.5 5.19,-5 5.19,-9.62 0,-5.58 -10,-16.15 -106.15,-112.49 C 231.81,257.41 223.15,249.33 214.5,246.83 c -11.35,-3.46 -11.54,-3.46 -21.34,0 z m 120.76,145.38 c 14.23,7.5 39.81,36.34 39.81,45 0,5.58 -2.12,6.35 -24.04,8.85 -21.35,2.5 -36.54,0.19 -45.19,-7.31 -5,-4.04 -5.77,-6.15 -5.77,-13.65 0,-10.77 5.38,-23.46 12.69,-30.19 5.58,-5.2 15.38,-6.36 22.5,-2.7 z"
           id="path452"
           style="font-variation-settings:normal;opacity:1;vector-effect:none;fill:#ffffff;fill-opacity:1;stroke-width:7.96572;stroke-linecap:butt;stroke-linejoin:miter;stroke-miterlimit:4;stroke-dasharray:none;stroke-dashoffset:0;stroke-opacity:1;-inkscape-stroke:none;stop-color:#000000;stop-opacity:1" />
        <path
           d="m 787.35,245.67 c -3.08,0.77 -7.5,2.5 -9.61,3.65 -2.12,1.15 -51.15,49.42 -109.03,107.5 -95.39,95.38 -105.39,105.96 -105.39,111.53 0,4.62 1.35,7.11 5.19,9.62 4.81,3.27 15.19,3.46 148.64,4.04 102.49,0.38 146.15,0 153.45,-1.54 13.08,-2.88 24.04,-12.69 27.31,-25 2.12,-7.5 1.73,-11.73 -2.5,-33.84 -9.81,-50 -29.81,-99.22 -57.3,-141.15 -15.19,-23.46 -23.08,-31.54 -33.85,-34.42 -8.07,-2.31 -8.64,-2.31 -16.91,-0.39 z M 708.7,394.9 c 6.92,6.92 12.31,19.81 12.31,30.19 0,7.5 -0.77,9.62 -5.77,13.65 -8.65,7.5 -23.84,9.81 -45.19,7.31 -27.31,-3.27 -28.84,-4.61 -20.38,-17.88 20.38,-31.54 46.15,-46.16 59.03,-33.27 z"
           id="path454"
           style="font-variation-settings:normal;opacity:1;vector-effect:none;fill:#ffffff;fill-opacity:1;stroke-width:7.96572;stroke-linecap:butt;stroke-linejoin:miter;stroke-miterlimit:4;stroke-dasharray:none;stroke-dashoffset:0;stroke-opacity:1;-inkscape-stroke:none;stop-color:#000000;stop-opacity:1" />
        <path
           d="m 126.81,519.31 c -14.61,4.04 -26.73,19.23 -26.92,33.26 0,10.38 9.23,50.38 17.31,74.42 14.04,42.11 42.69,95.76 61.34,115.18 11.54,11.92 21.15,14.81 35.38,10.58 9.42,-2.88 15.58,-8.46 116.34,-109.42 102.88,-102.86 106.34,-106.71 105.76,-113.06 -0.38,-5.19 -1.92,-7.11 -7.31,-9.81 -6.15,-3.26 -17.3,-3.46 -150.94,-3.26 -89.23,0 -146.73,0.96 -150.96,2.11 z m 206.72,34.23 c 18.65,2.69 20.19,3.46 20.19,8.65 0,6.35 -21.54,32.69 -33.46,40.77 -10.38,7.11 -20.58,8.27 -27.88,3.27 -6.54,-4.62 -13.65,-21.15 -13.65,-31.92 0,-7.5 0.77,-9.62 5.96,-13.85 3.27,-2.69 7.69,-5.38 10,-5.96 2.31,-0.38 5.96,-1.15 8.08,-1.54 6.92,-1.53 17.11,-1.34 30.76,0.58 z"
           id="path456"
           style="font-variation-settings:normal;opacity:1;vector-effect:none;fill:#ffffff;fill-opacity:1;stroke-width:7.96572;stroke-linecap:butt;stroke-linejoin:miter;stroke-miterlimit:4;stroke-dasharray:none;stroke-dashoffset:0;stroke-opacity:1;-inkscape-stroke:none;stop-color:#000000;stop-opacity:1" />
        <path
           d="m 573.9,518.35 c -6.34,1.54 -10.58,6.54 -10.58,12.88 0,5.19 11.92,17.88 105.38,111.34 57.88,58.07 107.3,106.53 109.99,107.88 13.08,6.73 28.27,5 39.23,-4.81 9.62,-8.27 32.5,-44.42 45.57,-71.92 14.42,-30 25.38,-63.26 31.92,-95.95 4.23,-22.11 4.61,-26.35 2.5,-33.85 -3.08,-11.34 -13.85,-21.73 -25.57,-24.8 -6.34,-1.54 -49.99,-2.12 -151.72,-1.92 -78.65,0.19 -144.6,0.77 -146.72,1.15 z m 134.22,37.31 c 9.62,5 12.88,9.81 12.88,18.84 -0.19,18.08 -12.11,34.8 -25,34.8 -12.69,0 -34.8,-18.46 -47.69,-40.19 -3.85,-6.73 -4.04,-7.69 -1.35,-10.38 1.54,-1.73 7.88,-3.46 13.85,-4.23 6.15,-0.77 12.11,-1.54 13.08,-2.11 3.66,-1.35 30,1.15 34.23,3.27 z"
           id="path458"
           style="font-variation-settings:normal;opacity:1;vector-effect:none;fill:#ffffff;fill-opacity:1;stroke-width:7.96572;stroke-linecap:butt;stroke-linejoin:miter;stroke-miterlimit:4;stroke-dasharray:none;stroke-dashoffset:0;stroke-opacity:1;-inkscape-stroke:none;stop-color:#000000;stop-opacity:1" />
        <path
           d="m 356.99,668.34 c -58.07,58.07 -106.53,107.49 -107.88,110.18 -11.54,21.92 -1.73,39.42 35.57,62.5 41.92,25.96 89.23,44.81 136.34,54.03 22.88,4.42 26.92,4.81 34.61,2.69 12.31,-3.27 22.11,-14.23 25,-27.3 1.54,-7.31 1.92,-50.96 1.54,-153.46 -0.58,-133.45 -0.77,-143.83 -4.04,-148.64 -2.5,-3.85 -5,-5.19 -9.61,-5.19 -5.57,0.01 -16.15,10.01 -111.53,105.19 z m 85.96,-19.61 c 2.5,6.54 5,36.73 3.85,45 -2.88,19.81 -8.85,27.11 -21.73,27.11 -10.58,0 -27.11,-7.31 -31.73,-13.65 -9.23,-13.46 1.35,-32.69 30.19,-54.42 9.8,-7.31 17.49,-8.85 19.42,-4.04 z"
           id="path460"
           style="font-variation-settings:normal;opacity:1;vector-effect:none;fill:#ffffff;fill-opacity:1;stroke-width:7.96572;stroke-linecap:butt;stroke-linejoin:miter;stroke-miterlimit:4;stroke-dasharray:none;stroke-dashoffset:0;stroke-opacity:1;-inkscape-stroke:none;stop-color:#000000;stop-opacity:1" />
        <path
           d="m 521.79,567.2 c -3.46,3.85 -3.65,9.61 -4.23,151.15 -0.38,99.22 0.19,149.41 1.54,154.6 2.69,10.19 14.23,21.92 24.61,25 17.69,5.19 85,-12.69 130.96,-34.81 23.84,-11.54 58.07,-32.69 68.07,-42.11 10.96,-10 14.23,-23.84 9.42,-38.65 -1.73,-5 -30,-34.42 -108.65,-113.07 C 549.29,575.08 536.6,563.16 531.4,563.16 c -3.65,0 -7.3,1.54 -9.61,4.04 z m 60,90.57 c 26.15,21.15 33.84,38.46 22.88,50.38 -11.15,12.12 -35,16.73 -42.69,8.27 -7.88,-8.65 -9.23,-13.27 -9.04,-34.04 0.19,-11.15 1.34,-23.84 2.5,-28.46 3.27,-11.54 8.08,-10.96 26.35,3.85 z"
           id="path462"
           style="font-variation-settings:normal;opacity:1;vector-effect:none;fill:#ffffff;fill-opacity:1;stroke-width:7.96572;stroke-linecap:butt;stroke-linejoin:miter;stroke-miterlimit:4;stroke-dasharray:none;stroke-dashoffset:0;stroke-opacity:1;-inkscape-stroke:none;stop-color:#000000;stop-opacity:1" />
      </g>
    </g>
  </g>
  <metadata
     id="metadata7524">
    <rdf:RDF>
      <cc:Work
         rdf:about="">
        <dc:title>compiler</dc:title>
      </cc:Work>
    </rdf:RDF>
  </metadata>
</svg>
